<svg width="24" height="24" viewBox="0 0 24 24" fill="none" xmlns="http://www.w3.org/2000/svg">
    <path d="M19.24 6.462h-2.99l-.713-1.996A.705.705 0 0 0 14.873 4H8.127a.702.702 0 0 0-.662.466L6.75 6.462H3.76C2.786 6.462 2 7.248 2 8.22v10.022C2 19.213 2.787 20 3.76 20h15.48c.973 0 1.76-.787 1.76-1.758V8.22c0-.972-.787-1.758-1.76-1.758zm.177 11.78c0 .096-.08.176-.176.176H3.759a.176.176 0 0 1-.176-.176V8.22c0-.097.08-.176.176-.176h4.106l.376-1.05.504-1.412h5.508l.504 1.411.376 1.051h4.108c.096 0 .176.08.176.176v10.022zM11.5 9.45a3.517 3.517 0 1 0 0 7.032 3.516 3.516 0 1 0 0-7.032zm0 5.626a2.111 2.111 0 1 1 0-4.222 2.111 2.111 0 0 1 0 4.222z" fill="#8F9090"/>
</svg>
