<svg width="48" height="48" viewBox="0 0 48 48" fill="none" xmlns="http://www.w3.org/2000/svg">
    <path d="M24 19.81c-2.31 0-4.19 1.88-4.19 4.19 0 2.31 1.88 4.19 4.19 4.19 2.31 0 4.19-1.88 4.19-4.19 0-2.31-1.88-4.19-4.19-4.19zm0 6.78a2.59 2.59 0 1 1 .001-5.181 2.59 2.59 0 0 1 0 5.181z" fill="#fff"/>
    <path d="m32.68 25.57-.85-.62a7.694 7.694 0 0 0 0-1.9l.85-.62c.75-.55.94-1.62.43-2.51l-1.03-1.78c-.51-.88-1.54-1.26-2.38-.88l-.96.43c-.51-.38-1.06-.7-1.64-.95l-.11-1.05c-.1-.93-.94-1.63-1.95-1.63h-2.06c-1.02 0-1.86.7-1.95 1.62l-.11 1.05c-.59.25-1.14.57-1.64.95l-.96-.43c-.85-.38-1.88 0-2.38.88l-1.03 1.78c-.51.88-.32 1.96.43 2.5l.85.62a7.694 7.694 0 0 0 0 1.9l-.85.62c-.75.55-.94 1.62-.43 2.51l1.03 1.78c.51.88 1.53 1.26 2.38.88l.96-.43c.51.38 1.06.7 1.64.95l.11 1.05c.1.93.94 1.63 1.95 1.63h2.06c1.02 0 1.86-.7 1.95-1.62l.11-1.05c.59-.25 1.14-.57 1.64-.95l.96.43c.85.38 1.88 0 2.38-.88l1.03-1.78c.51-.88.33-1.95-.43-2.5zm-.95 1.7-1.03 1.78c-.1.18-.27.25-.35.22l-1.41-.63a.801.801 0 0 0-.85.12c-.59.51-1.27.9-2.01 1.16-.29.1-.5.36-.53.67l-.16 1.54c-.01.07-.14.19-.36.19h-2.06c-.22 0-.35-.12-.36-.19l-.16-1.53a.79.79 0 0 0-.53-.67c-.74-.26-1.42-.65-2.01-1.16a.778.778 0 0 0-.52-.19c-.11 0-.22.02-.33.07l-1.41.63c-.07.04-.25-.04-.35-.22l-1.03-1.78c-.11-.18-.08-.37-.02-.41l1.25-.91a.81.81 0 0 0 .32-.79c-.08-.41-.11-.79-.11-1.16 0-.37.04-.76.11-1.16a.79.79 0 0 0-.32-.79l-1.25-.91c-.06-.05-.09-.23.01-.41l1.03-1.78c.1-.18.28-.25.35-.22l1.41.63c.28.13.61.08.85-.12.59-.51 1.27-.9 2.01-1.16.29-.1.5-.36.53-.67l.16-1.54c.01-.07.14-.19.36-.19h2.06c.22 0 .35.12.36.19l.16 1.53c.03.31.24.57.53.67.74.26 1.42.65 2.01 1.16.23.2.56.25.85.12l1.41-.63c.07-.04.24.04.35.22l1.03 1.78c.1.18.08.36.01.41l-1.25.91a.81.81 0 0 0-.32.79c.08.41.11.79.11 1.16 0 .37-.04.76-.11 1.16-.06.3.07.61.32.79l1.25.91c.08.05.1.23 0 .41z" fill="#fff"/>
</svg>
